<?xml version="1.0" encoding="utf-8"?>
<!-- Generator: Adobe Illustrator 24.3.0, SVG Export Plug-In . SVG Version: 6.00 Build 0)  -->
<svg version="1.1" id="Capa_1" xmlns="http://www.w3.org/2000/svg" xmlns:xlink="http://www.w3.org/1999/xlink" x="0px" y="0px"
	 viewBox="0 0 2500 2500" style="enable-background:new 0 0 2500 2500;" xml:space="preserve">
<style type="text/css">
	.st0{fill:#F0DB4F;}
	.st1{fill:#323330;}
	.st2{font-family:'MyriadPro-Bold';}
	.st3{font-size:550.3651px;}
	.st4{letter-spacing:-40;}
</style>
<path class="st0" d="M0,0h2500v2500H0V0z"/>
<path class="st1" d="M2367.9,1985.4c-16.3-101.8-82.7-187.3-279.4-267.1c-68.3-31.4-144.5-53.9-167.2-105.7
	c-8.1-30.1-9.1-47.1-4-65.3c14.6-59.2,85.3-77.7,141.3-60.7c36.1,12.1,70.2,39.9,90.8,84.2c96.3-62.4,96.1-62,163.4-104.8
	c-24.6-38.2-37.8-55.8-53.9-72.1c-57.9-64.7-136.8-98-263.1-95.5c-21.9,2.8-43.9,5.7-65.8,8.5c-63,15.9-123.1,49-158.3,93.4
	c-105.7,119.9-75.5,329.7,53,416.1c126.7,95,312.7,116.7,336.5,205.6c23.1,108.8-80,144.1-182.5,131.5
	c-75.5-15.7-117.5-54.1-162.9-123.9c-83.6,48.4-83.6,48.4-169.5,97.8c20.4,44.6,41.8,64.7,76,103.3
	c161.7,164,566.3,155.9,638.8-92.3C2364.1,2129.9,2383.6,2073.1,2367.9,1985.4z M1532,1311.6h-208.8c0,180.3-0.8,359.4-0.8,539.7
	c0,114.8,5.9,220-12.7,252.3c-30.6,63.4-109.7,55.6-145.8,43.3c-36.7-18-55.4-43.7-77-80c-5.9-10.4-10.4-18.5-11.9-19.1
	c-56.6,34.6-113.1,69.4-169.7,104c28.2,57.9,69.8,108.2,123.1,140.9c79.6,47.7,186.5,62.4,298.3,36.7
	c72.8-21.2,135.6-65.1,168.5-132c47.5-87.6,37.3-193.7,36.9-311C1533,1695,1532,1503.6,1532,1311.6L1532,1311.6z"/>
<text transform="matrix(0.8746 0 0 1 112.0371 520.0911)" class="st1 st2 st3 st4">VANILLA</text>
</svg>
